<svg xmlns="http://www.w3.org/2000/svg" xmlns:xlink="http://www.w3.org/1999/xlink" width="730" zoomAndPan="magnify" viewBox="0 0 547.5 821.249992" height="1095" preserveAspectRatio="xMidYMid meet" version="1.2"><defs><clipPath id="5c52f6188c"><path d="M 0 0.140625 L 547 0.140625 L 547 820.351562 L 0 820.351562 Z M 0 0.140625 "/></clipPath><clipPath id="8991abd882"><path d="M 14.984375 0.140625 L 532.015625 0.140625 C 540.289062 0.140625 547 6.851562 547 15.128906 L 547 805.371094 C 547 813.648438 540.289062 820.359375 532.015625 820.359375 L 14.984375 820.359375 C 6.710938 820.359375 0 813.648438 0 805.371094 L 0 15.128906 C 0 6.851562 6.710938 0.140625 14.984375 0.140625 Z M 14.984375 0.140625 "/></clipPath><linearGradient x1="-31.964845" gradientTransform="matrix(2.136721,0,0,2.136721,0.00000266667,0.132219)" y1="31.969153" x2="287.966987" gradientUnits="userSpaceOnUse" y2="351.900977" id="4ccde26a5c"><stop style="stop-color:#ff3334;stop-opacity:1;" offset="0"/><stop style="stop-color:#ff3334;stop-opacity:1;" offset="0.015625"/><stop style="stop-color:#fe3335;stop-opacity:1;" offset="0.03125"/><stop style="stop-color:#fd3236;stop-opacity:1;" offset="0.046875"/><stop style="stop-color:#fc3236;stop-opacity:1;" offset="0.0625"/><stop style="stop-color:#fb3237;stop-opacity:1;" offset="0.078125"/><stop style="stop-color:#fa3137;stop-opacity:1;" offset="0.09375"/><stop style="stop-color:#fa3138;stop-opacity:1;" offset="0.109375"/><stop style="stop-color:#f93138;stop-opacity:1;" offset="0.125"/><stop style="stop-color:#f83139;stop-opacity:1;" offset="0.140625"/><stop style="stop-color:#f7303a;stop-opacity:1;" offset="0.15625"/><stop style="stop-color:#f6303a;stop-opacity:1;" offset="0.171875"/><stop style="stop-color:#f5303b;stop-opacity:1;" offset="0.1875"/><stop style="stop-color:#f42f3b;stop-opacity:1;" offset="0.203125"/><stop style="stop-color:#f42f3c;stop-opacity:1;" offset="0.21875"/><stop style="stop-color:#f32f3d;stop-opacity:1;" offset="0.234375"/><stop style="stop-color:#f22f3d;stop-opacity:1;" offset="0.25"/><stop style="stop-color:#f12e3e;stop-opacity:1;" offset="0.265625"/><stop style="stop-color:#f02e3e;stop-opacity:1;" offset="0.28125"/><stop style="stop-color:#ef2e3f;stop-opacity:1;" offset="0.296875"/><stop style="stop-color:#ef2d40;stop-opacity:1;" offset="0.3125"/><stop style="stop-color:#ee2d40;stop-opacity:1;" offset="0.328125"/><stop style="stop-color:#ed2d41;stop-opacity:1;" offset="0.34375"/><stop style="stop-color:#ec2d41;stop-opacity:1;" offset="0.359375"/><stop style="stop-color:#eb2c42;stop-opacity:1;" offset="0.375"/><stop style="stop-color:#ea2c43;stop-opacity:1;" offset="0.390625"/><stop style="stop-color:#e92c43;stop-opacity:1;" offset="0.400085"/><stop style="stop-color:#e92c43;stop-opacity:1;" offset="0.40625"/><stop style="stop-color:#e92c44;stop-opacity:1;" offset="0.421875"/><stop style="stop-color:#e82b44;stop-opacity:1;" offset="0.4375"/><stop style="stop-color:#e72b45;stop-opacity:1;" offset="0.453125"/><stop style="stop-color:#e62b46;stop-opacity:1;" offset="0.46875"/><stop style="stop-color:#e52a46;stop-opacity:1;" offset="0.484375"/><stop style="stop-color:#e42a47;stop-opacity:1;" offset="0.5"/><stop style="stop-color:#e42a47;stop-opacity:1;" offset="0.515625"/><stop style="stop-color:#e32a48;stop-opacity:1;" offset="0.53125"/><stop style="stop-color:#e22948;stop-opacity:1;" offset="0.546875"/><stop style="stop-color:#e12949;stop-opacity:1;" offset="0.5625"/><stop style="stop-color:#e0294a;stop-opacity:1;" offset="0.578125"/><stop style="stop-color:#df284a;stop-opacity:1;" offset="0.59375"/><stop style="stop-color:#de284b;stop-opacity:1;" offset="0.599915"/><stop style="stop-color:#de284b;stop-opacity:1;" offset="0.609375"/><stop style="stop-color:#de284b;stop-opacity:1;" offset="0.625"/><stop style="stop-color:#dd284c;stop-opacity:1;" offset="0.640625"/><stop style="stop-color:#dc274d;stop-opacity:1;" offset="0.65625"/><stop style="stop-color:#db274d;stop-opacity:1;" offset="0.671875"/><stop style="stop-color:#da274e;stop-opacity:1;" offset="0.6875"/><stop style="stop-color:#d9264e;stop-opacity:1;" offset="0.703125"/><stop style="stop-color:#d9264f;stop-opacity:1;" offset="0.71875"/><stop style="stop-color:#d82650;stop-opacity:1;" offset="0.734375"/><stop style="stop-color:#d72650;stop-opacity:1;" offset="0.75"/><stop style="stop-color:#d62551;stop-opacity:1;" offset="0.765625"/><stop style="stop-color:#d52551;stop-opacity:1;" offset="0.78125"/><stop style="stop-color:#d42552;stop-opacity:1;" offset="0.796875"/><stop style="stop-color:#d32453;stop-opacity:1;" offset="0.8125"/><stop style="stop-color:#d32453;stop-opacity:1;" offset="0.828125"/><stop style="stop-color:#d22454;stop-opacity:1;" offset="0.84375"/><stop style="stop-color:#d12454;stop-opacity:1;" offset="0.859375"/><stop style="stop-color:#d02355;stop-opacity:1;" offset="0.875"/><stop style="stop-color:#cf2356;stop-opacity:1;" offset="0.890625"/><stop style="stop-color:#ce2356;stop-opacity:1;" offset="0.90625"/><stop style="stop-color:#ce2257;stop-opacity:1;" offset="0.921875"/><stop style="stop-color:#cd2257;stop-opacity:1;" offset="0.9375"/><stop style="stop-color:#cc2258;stop-opacity:1;" offset="0.953125"/><stop style="stop-color:#cb2259;stop-opacity:1;" offset="0.96875"/><stop style="stop-color:#ca2159;stop-opacity:1;" offset="0.984375"/><stop style="stop-color:#c9215a;stop-opacity:1;" offset="1"/></linearGradient><clipPath id="e5493008e8"><path d="M 445.136719 82.332031 L 464.902344 82.332031 L 464.902344 102.097656 L 445.136719 102.097656 Z M 445.136719 82.332031 "/></clipPath><clipPath id="ad785077d1"><path d="M 455.019531 82.332031 C 449.5625 82.332031 445.136719 86.757812 445.136719 92.214844 C 445.136719 97.671875 449.5625 102.097656 455.019531 102.097656 C 460.476562 102.097656 464.902344 97.671875 464.902344 92.214844 C 464.902344 86.757812 460.476562 82.332031 455.019531 82.332031 Z M 455.019531 82.332031 "/></clipPath><clipPath id="a6b6336f80"><path d="M 420 92.496094 L 490.515625 92.496094 L 490.515625 127.714844 L 420 127.714844 Z M 420 92.496094 "/></clipPath><clipPath id="bf3bbd2359"><path d="M 0 16 L 547 16 L 547 129 L 0 129 Z M 0 16 "/></clipPath><clipPath id="e5699de399"><path d="M 54.699219 154.476562 L 492.300781 154.476562 L 492.300781 593.429688 L 54.699219 593.429688 Z M 54.699219 154.476562 "/></clipPath><clipPath id="9e82b5a8ee"><path d="M 54.699219 611.484375 L 492.976562 611.484375 L 492.976562 789.863281 L 54.699219 789.863281 Z M 54.699219 611.484375 "/></clipPath><clipPath id="662ad93f41"><path d="M 80.175781 611.484375 L 466.824219 611.484375 C 480.894531 611.484375 492.300781 622.890625 492.300781 636.960938 L 492.300781 764.386719 C 492.300781 778.457031 480.894531 789.863281 466.824219 789.863281 L 80.175781 789.863281 C 66.105469 789.863281 54.699219 778.457031 54.699219 764.386719 L 54.699219 636.960938 C 54.699219 622.890625 66.105469 611.484375 80.175781 611.484375 Z M 80.175781 611.484375 "/></clipPath><clipPath id="8e2df3b94e"><path d="M 54.707031 611.484375 L 492.300781 611.484375 L 492.300781 789.820312 L 54.707031 789.820312 Z M 54.707031 611.484375 "/></clipPath><clipPath id="43325909b5"><path d="M 80.175781 611.484375 L 466.738281 611.484375 C 480.804688 611.484375 492.207031 622.890625 492.207031 636.957031 L 492.207031 764.351562 C 492.207031 778.417969 480.804688 789.820312 466.738281 789.820312 L 80.175781 789.820312 C 66.109375 789.820312 54.707031 778.417969 54.707031 764.351562 L 54.707031 636.957031 C 54.707031 622.890625 66.109375 611.484375 80.175781 611.484375 Z M 80.175781 611.484375 "/></clipPath><clipPath id="63d3e70e94"><path d="M 417.738281 55 L 492.671875 55 L 492.671875 129.632812 L 417.738281 129.632812 Z M 417.738281 55 "/></clipPath><clipPath id="56ef5b7ba3"><path d="M 252.058594 24.769531 L 294.941406 24.769531 L 294.941406 67.652344 L 252.058594 67.652344 Z M 252.058594 24.769531 "/></clipPath><clipPath id="cbe7433556"><path d="M 273.5 24.769531 C 261.660156 24.769531 252.058594 34.367188 252.058594 46.210938 C 252.058594 58.050781 261.660156 67.652344 273.5 67.652344 C 285.34375 67.652344 294.941406 58.050781 294.941406 46.210938 C 294.941406 34.367188 285.34375 24.769531 273.5 24.769531 Z M 273.5 24.769531 "/></clipPath><clipPath id="2332022cbb"><path d="M 252.058594 24.769531 L 294.769531 24.769531 L 294.769531 67.480469 L 252.058594 67.480469 Z M 252.058594 24.769531 "/></clipPath></defs><g id="91fdd86920"><g clip-rule="nonzero" clip-path="url(#5c52f6188c)"><g clip-rule="nonzero" clip-path="url(#8991abd882)"><path style=" stroke:none;fill-rule:nonzero;fill:url(#4ccde26a5c);" d="M 0 0.140625 L 0 820.351562 L 547 820.351562 L 547 0.140625 Z M 0 0.140625 "/></g></g><g clip-rule="nonzero" clip-path="url(#e5493008e8)"><g clip-rule="nonzero" clip-path="url(#ad785077d1)"><path style=" stroke:none;fill-rule:nonzero;fill:#ffffff;fill-opacity:1;" d="M 445.136719 82.332031 L 464.902344 82.332031 L 464.902344 102.097656 L 445.136719 102.097656 Z M 445.136719 82.332031 "/></g></g><g clip-rule="nonzero" clip-path="url(#a6b6336f80)"><path style=" stroke:none;fill-rule:nonzero;fill:#ffffff;fill-opacity:1;" d="M 490.515625 92.496094 C 490.515625 111.945312 474.75 127.714844 455.296875 127.714844 C 435.847656 127.714844 420.082031 111.945312 420.082031 92.496094 Z M 490.515625 92.496094 "/></g><g clip-rule="nonzero" clip-path="url(#bf3bbd2359)"><path style="fill:none;stroke-width:4;stroke-linecap:butt;stroke-linejoin:miter;stroke:#231f20;stroke-opacity:1;stroke-miterlimit:4;" d="M -0.0000035588 106.191081 L 480.777228 106.191081 C 494.028903 106.191081 504.778295 95.443915 504.778295 82.190123 L 504.778295 25.999891 C 504.778295 12.746098 515.522473 1.998933 528.774148 1.998933 L 729.999425 1.998933 " transform="matrix(0.749316,0,0,0.748017,0.00000266667,31.965701)"/></g><g clip-rule="nonzero" clip-path="url(#e5699de399)"><path style=" stroke:none;fill-rule:nonzero;fill:#231f20;fill-opacity:1;" d="M 54.699219 154.476562 L 492.300781 154.476562 L 492.300781 593.785156 L 54.699219 593.785156 Z M 54.699219 154.476562 "/></g><g clip-rule="nonzero" clip-path="url(#9e82b5a8ee)"><g clip-rule="nonzero" clip-path="url(#662ad93f41)"><path style=" stroke:none;fill-rule:nonzero;fill:#636363;fill-opacity:1;" d="M 54.699219 611.484375 L 492.28125 611.484375 L 492.28125 789.863281 L 54.699219 789.863281 Z M 54.699219 611.484375 "/></g></g><g clip-rule="nonzero" clip-path="url(#8e2df3b94e)"><g clip-rule="nonzero" clip-path="url(#43325909b5)"><path style="fill:none;stroke-width:8;stroke-linecap:butt;stroke-linejoin:miter;stroke:#231f20;stroke-opacity:1;stroke-miterlimit:4;" d="M 33.997986 -0.000955277 L 549.986992 -0.000955277 C 568.763027 -0.000955277 583.983034 15.224266 583.983034 34.000301 L 583.983034 204.048295 C 583.983034 222.824329 568.763027 238.044337 549.986992 238.044337 L 33.997986 238.044337 C 15.221951 238.044337 0.00194406 222.824329 0.00194406 204.048295 L 0.00194406 34.000301 C 0.00194406 15.224266 15.221951 -0.000955277 33.997986 -0.000955277 Z M 33.997986 -0.000955277 " transform="matrix(0.749168,0,0,0.749168,54.705575,611.485091)"/></g></g><g clip-rule="nonzero" clip-path="url(#63d3e70e94)"><path style=" stroke:none;fill-rule:nonzero;fill:#231f20;fill-opacity:1;" d="M 455.207031 55.160156 C 434.546875 55.160156 417.738281 71.863281 417.738281 92.394531 C 417.738281 112.921875 434.546875 129.625 455.207031 129.625 C 475.863281 129.625 492.671875 112.921875 492.671875 92.394531 C 492.671875 71.863281 475.863281 55.160156 455.207031 55.160156 Z M 420.488281 89.457031 C 421.21875 80.839844 425.152344 72.847656 431.566406 66.957031 C 432.363281 66.226562 433.191406 65.535156 434.050781 64.882812 C 434.914062 64.226562 435.800781 63.613281 436.71875 63.042969 C 437.640625 62.472656 438.582031 61.945312 439.550781 61.460938 C 440.515625 60.976562 441.503906 60.539062 442.515625 60.148438 C 443.523438 59.753906 444.546875 59.410156 445.589844 59.113281 C 446.632812 58.816406 447.683594 58.570312 448.75 58.371094 C 449.8125 58.167969 450.882812 58.019531 451.964844 57.917969 C 453.042969 57.820312 454.121094 57.769531 455.207031 57.769531 C 456.289062 57.769531 457.371094 57.820312 458.449219 57.917969 C 459.527344 58.019531 460.597656 58.167969 461.664062 58.371094 C 462.726562 58.570312 463.78125 58.816406 464.820312 59.113281 C 465.863281 59.410156 466.886719 59.753906 467.898438 60.148438 C 468.90625 60.539062 469.894531 60.976562 470.863281 61.460938 C 471.828125 61.945312 472.773438 62.472656 473.691406 63.042969 C 474.609375 63.613281 475.5 64.226562 476.359375 64.882812 C 477.21875 65.535156 478.046875 66.226562 478.84375 66.957031 C 485.261719 72.847656 489.195312 80.839844 489.925781 89.457031 C 489.945312 89.726562 489.914062 89.992188 489.824219 90.246094 C 489.738281 90.503906 489.601562 90.734375 489.414062 90.933594 C 489.230469 91.132812 489.011719 91.289062 488.761719 91.398438 C 488.511719 91.507812 488.25 91.5625 487.976562 91.5625 L 468.65625 91.5625 C 468.433594 91.5625 468.214844 91.523438 468.003906 91.449219 C 467.789062 91.375 467.597656 91.265625 467.421875 91.125 C 467.25 90.984375 467.101562 90.816406 466.984375 90.625 C 466.871094 90.4375 466.789062 90.230469 466.742188 90.011719 C 465.621094 84.609375 460.769531 80.6875 455.207031 80.6875 C 449.644531 80.6875 444.789062 84.609375 443.667969 90.011719 C 443.621094 90.230469 443.542969 90.4375 443.425781 90.625 C 443.308594 90.816406 443.164062 90.984375 442.988281 91.125 C 442.8125 91.265625 442.621094 91.375 442.410156 91.449219 C 442.199219 91.523438 441.980469 91.5625 441.753906 91.5625 L 422.433594 91.5625 C 422.160156 91.5625 421.898438 91.507812 421.648438 91.398438 C 421.398438 91.289062 421.183594 91.132812 420.996094 90.933594 C 420.8125 90.734375 420.675781 90.503906 420.585938 90.246094 C 420.496094 89.992188 420.464844 89.726562 420.488281 89.457031 Z M 464.640625 92.394531 C 464.644531 93.871094 464.3125 95.273438 463.644531 96.59375 C 463.25 97.371094 462.757812 98.082031 462.167969 98.722656 C 461.578125 99.367188 460.910156 99.914062 460.164062 100.371094 C 459.417969 100.832031 458.625 101.175781 457.78125 101.414062 C 456.941406 101.652344 456.082031 101.773438 455.207031 101.773438 C 454.328125 101.773438 453.46875 101.652344 452.628906 101.414062 C 451.785156 101.175781 450.992188 100.828125 450.246094 100.371094 C 449.5 99.914062 448.832031 99.367188 448.242188 98.722656 C 447.652344 98.082031 447.160156 97.371094 446.765625 96.59375 C 446.609375 96.277344 446.46875 95.953125 446.34375 95.621094 C 446.222656 95.292969 446.121094 94.953125 446.035156 94.613281 C 445.949219 94.269531 445.886719 93.921875 445.839844 93.574219 C 445.796875 93.222656 445.773438 92.871094 445.765625 92.519531 C 445.761719 92.167969 445.777344 91.816406 445.8125 91.464844 C 445.847656 91.113281 445.902344 90.765625 445.976562 90.417969 C 446.050781 90.074219 446.144531 89.734375 446.257812 89.402344 C 446.371094 89.066406 446.503906 88.738281 446.652344 88.417969 C 446.804688 88.101562 446.96875 87.789062 447.15625 87.488281 C 447.339844 87.1875 447.542969 86.898438 447.761719 86.621094 C 447.980469 86.34375 448.214844 86.078125 448.460938 85.824219 C 448.710938 85.574219 448.972656 85.335938 449.246094 85.113281 C 449.523438 84.890625 449.808594 84.683594 450.109375 84.492188 C 450.40625 84.304688 450.714844 84.128906 451.035156 83.972656 C 451.351562 83.816406 451.679688 83.679688 452.011719 83.5625 C 452.347656 83.441406 452.6875 83.34375 453.03125 83.261719 C 453.378906 83.179688 453.726562 83.117188 454.078125 83.074219 C 454.433594 83.035156 454.785156 83.011719 455.140625 83.007812 C 455.496094 83.007812 455.851562 83.023438 456.203125 83.0625 C 456.554688 83.097656 456.90625 83.15625 457.25 83.234375 C 457.597656 83.308594 457.941406 83.40625 458.273438 83.519531 C 458.609375 83.632812 458.9375 83.769531 459.257812 83.917969 C 459.578125 84.070312 459.890625 84.238281 460.191406 84.425781 C 460.492188 84.613281 460.785156 84.816406 461.0625 85.035156 C 461.339844 85.253906 461.605469 85.488281 461.855469 85.734375 C 462.109375 85.984375 462.347656 86.246094 462.566406 86.523438 C 462.789062 86.796875 462.996094 87.082031 463.183594 87.382812 C 463.375 87.679688 463.546875 87.988281 463.699219 88.304688 C 463.855469 88.625 463.992188 88.949219 464.109375 89.28125 C 464.226562 89.613281 464.324219 89.953125 464.40625 90.296875 C 464.484375 90.640625 464.542969 90.988281 464.582031 91.339844 C 464.621094 91.6875 464.640625 92.039062 464.640625 92.394531 Z M 489.867188 95.917969 C 489.761719 96.972656 489.601562 98.019531 489.398438 99.0625 C 489.191406 100.101562 488.9375 101.128906 488.636719 102.148438 C 488.335938 103.164062 487.992188 104.167969 487.597656 105.152344 C 487.203125 106.136719 486.765625 107.101562 486.285156 108.046875 C 485.800781 108.996094 485.277344 109.917969 484.707031 110.8125 C 484.140625 111.710938 483.53125 112.582031 482.882812 113.421875 C 482.238281 114.265625 481.550781 115.078125 480.828125 115.855469 C 480.105469 116.636719 479.347656 117.382812 478.554688 118.09375 C 477.761719 118.800781 476.941406 119.476562 476.085938 120.109375 C 475.230469 120.746094 474.351562 121.339844 473.441406 121.894531 C 472.53125 122.449219 471.597656 122.964844 470.644531 123.433594 C 469.6875 123.902344 468.710938 124.328125 467.714844 124.707031 C 466.71875 125.089844 465.707031 125.421875 464.679688 125.710938 C 463.652344 126 462.617188 126.242188 461.566406 126.433594 C 460.519531 126.628906 459.460938 126.773438 458.398438 126.871094 C 457.335938 126.96875 456.273438 127.015625 455.207031 127.015625 C 454.140625 127.015625 453.074219 126.96875 452.011719 126.871094 C 450.949219 126.773438 449.894531 126.628906 448.84375 126.433594 C 447.796875 126.242188 446.757812 126 445.730469 125.710938 C 444.703125 125.421875 443.691406 125.089844 442.695312 124.707031 C 441.703125 124.328125 440.726562 123.902344 439.769531 123.433594 C 438.8125 122.964844 437.878906 122.449219 436.96875 121.894531 C 436.0625 121.339844 435.179688 120.746094 434.324219 120.109375 C 433.472656 119.476562 432.648438 118.800781 431.855469 118.09375 C 431.0625 117.382812 430.304688 116.636719 429.582031 115.855469 C 428.859375 115.078125 428.175781 114.265625 427.527344 113.421875 C 426.878906 112.582031 426.269531 111.710938 425.703125 110.8125 C 425.136719 109.917969 424.609375 108.996094 424.128906 108.046875 C 423.644531 107.101562 423.207031 106.136719 422.8125 105.152344 C 422.421875 104.167969 422.074219 103.164062 421.773438 102.148438 C 421.472656 101.128906 421.21875 100.101562 421.015625 99.0625 C 420.808594 98.019531 420.652344 96.972656 420.542969 95.917969 C 420.515625 95.644531 420.542969 95.378906 420.628906 95.117188 C 420.714844 94.855469 420.851562 94.625 421.039062 94.421875 C 421.222656 94.214844 421.441406 94.058594 421.695312 93.949219 C 421.945312 93.835938 422.210938 93.78125 422.488281 93.78125 L 441.882812 93.78125 C 442.332031 93.78125 442.730469 93.917969 443.085938 94.191406 C 443.4375 94.464844 443.667969 94.820312 443.777344 95.25 C 443.9375 95.878906 444.148438 96.488281 444.410156 97.082031 C 444.667969 97.675781 444.976562 98.242188 445.332031 98.785156 C 445.691406 99.328125 446.089844 99.839844 446.527344 100.316406 C 446.96875 100.792969 447.449219 101.230469 447.960938 101.628906 C 448.476562 102.023438 449.019531 102.378906 449.59375 102.6875 C 450.164062 102.996094 450.757812 103.253906 451.375 103.464844 C 451.992188 103.675781 452.621094 103.835938 453.265625 103.941406 C 453.90625 104.046875 454.554688 104.101562 455.207031 104.101562 C 455.855469 104.101562 456.503906 104.046875 457.148438 103.941406 C 457.789062 103.835938 458.417969 103.675781 459.035156 103.464844 C 459.652344 103.253906 460.246094 102.996094 460.820312 102.6875 C 461.394531 102.378906 461.9375 102.023438 462.449219 101.628906 C 462.964844 101.230469 463.441406 100.792969 463.882812 100.316406 C 464.324219 99.839844 464.722656 99.328125 465.078125 98.785156 C 465.433594 98.242188 465.742188 97.675781 466.003906 97.082031 C 466.265625 96.488281 466.472656 95.878906 466.632812 95.25 C 466.742188 94.820312 466.972656 94.464844 467.328125 94.191406 C 467.679688 93.917969 468.082031 93.78125 468.527344 93.78125 L 487.925781 93.78125 C 488.199219 93.78125 488.464844 93.835938 488.71875 93.949219 C 488.96875 94.058594 489.1875 94.214844 489.375 94.421875 C 489.558594 94.625 489.695312 94.855469 489.78125 95.117188 C 489.867188 95.378906 489.894531 95.644531 489.867188 95.917969 Z M 489.867188 95.917969 "/></g><path style=" stroke:none;fill-rule:nonzero;fill:#231f20;fill-opacity:1;" d="M 485.6875 97.664062 C 483.160156 112.328125 470.417969 123.132812 455.207031 123.132812 C 439.992188 123.132812 427.25 112.328125 424.722656 97.664062 L 440.4375 97.664062 C 441.457031 100.460938 443.136719 102.78125 445.480469 104.628906 C 446.167969 105.171875 446.894531 105.648438 447.664062 106.070312 C 448.433594 106.488281 449.230469 106.839844 450.058594 107.125 C 450.886719 107.414062 451.730469 107.628906 452.59375 107.773438 C 453.460938 107.917969 454.328125 107.988281 455.207031 107.988281 C 456.082031 107.988281 456.953125 107.917969 457.816406 107.773438 C 458.679688 107.628906 459.527344 107.414062 460.351562 107.125 C 461.179688 106.839844 461.980469 106.488281 462.746094 106.070312 C 463.515625 105.648438 464.242188 105.171875 464.929688 104.628906 C 467.273438 102.78125 468.957031 100.460938 469.972656 97.664062 Z M 485.6875 97.664062 "/><path style=" stroke:none;fill-rule:nonzero;fill:#231f20;fill-opacity:1;" d="M 460.734375 92.394531 C 460.734375 92.617188 460.71875 92.84375 460.691406 93.066406 C 460.664062 93.289062 460.621094 93.511719 460.566406 93.730469 C 460.511719 93.945312 460.441406 94.160156 460.359375 94.371094 C 460.277344 94.582031 460.183594 94.785156 460.078125 94.984375 C 459.96875 95.179688 459.851562 95.371094 459.71875 95.554688 C 459.589844 95.738281 459.445312 95.914062 459.292969 96.082031 C 459.140625 96.25 458.980469 96.40625 458.808594 96.550781 C 458.636719 96.699219 458.457031 96.832031 458.265625 96.957031 C 458.078125 97.082031 457.882812 97.195312 457.679688 97.296875 C 457.476562 97.394531 457.269531 97.484375 457.054688 97.558594 C 456.84375 97.632812 456.625 97.695312 456.402344 97.746094 C 456.183594 97.792969 455.957031 97.828125 455.734375 97.851562 C 455.507812 97.871094 455.28125 97.878906 455.054688 97.871094 C 454.828125 97.867188 454.605469 97.84375 454.378906 97.8125 C 454.15625 97.777344 453.933594 97.730469 453.714844 97.667969 C 453.5 97.609375 453.285156 97.535156 453.074219 97.445312 C 452.867188 97.359375 452.664062 97.261719 452.46875 97.148438 C 452.269531 97.035156 452.082031 96.914062 451.902344 96.777344 C 451.71875 96.644531 451.546875 96.496094 451.382812 96.34375 C 451.222656 96.1875 451.066406 96.019531 450.925781 95.84375 C 450.78125 95.671875 450.652344 95.488281 450.53125 95.296875 C 450.410156 95.105469 450.304688 94.910156 450.207031 94.703125 C 450.113281 94.5 450.027344 94.292969 449.957031 94.078125 C 449.890625 93.863281 449.832031 93.644531 449.789062 93.425781 C 449.746094 93.203125 449.71875 92.980469 449.703125 92.757812 C 449.6875 92.53125 449.6875 92.308594 449.699219 92.082031 C 449.710938 91.855469 449.738281 91.632812 449.777344 91.414062 C 449.820312 91.191406 449.871094 90.972656 449.941406 90.757812 C 450.007812 90.542969 450.085938 90.332031 450.179688 90.128906 C 450.273438 89.921875 450.378906 89.722656 450.496094 89.53125 C 450.613281 89.339844 450.746094 89.15625 450.886719 88.980469 C 451.027344 88.800781 451.175781 88.636719 451.339844 88.476562 C 451.5 88.320312 451.671875 88.171875 451.851562 88.035156 C 452.03125 87.898438 452.21875 87.773438 452.414062 87.65625 C 452.609375 87.542969 452.808594 87.441406 453.015625 87.351562 C 453.226562 87.261719 453.4375 87.1875 453.65625 87.121094 C 453.871094 87.058594 454.09375 87.007812 454.316406 86.972656 C 454.539062 86.9375 454.765625 86.914062 454.992188 86.90625 C 455.21875 86.894531 455.445312 86.898438 455.667969 86.917969 C 455.894531 86.9375 456.117188 86.96875 456.339844 87.015625 C 456.5625 87.0625 456.78125 87.121094 456.996094 87.195312 C 457.210938 87.265625 457.417969 87.351562 457.621094 87.449219 C 457.824219 87.546875 458.023438 87.660156 458.214844 87.78125 C 458.402344 87.902344 458.585938 88.039062 458.757812 88.183594 C 458.933594 88.328125 459.097656 88.480469 459.25 88.644531 C 459.40625 88.808594 459.550781 88.984375 459.683594 89.167969 C 459.816406 89.347656 459.9375 89.539062 460.046875 89.734375 C 460.15625 89.933594 460.253906 90.136719 460.335938 90.34375 C 460.601562 91 460.734375 91.683594 460.734375 92.394531 Z M 460.734375 92.394531 "/><path style=" stroke:none;fill-rule:nonzero;fill:#231f20;fill-opacity:1;" d="M 485.777344 87.675781 L 470.164062 87.675781 C 469.914062 86.894531 469.601562 86.132812 469.230469 85.398438 C 468.859375 84.664062 468.429688 83.960938 467.949219 83.292969 C 467.464844 82.625 466.929688 82 466.347656 81.414062 C 465.765625 80.832031 465.140625 80.296875 464.472656 79.8125 C 463.804688 79.324219 463.101562 78.894531 462.363281 78.519531 C 461.628906 78.144531 460.867188 77.828125 460.078125 77.574219 C 459.292969 77.316406 458.492188 77.125 457.671875 76.996094 C 456.855469 76.867188 456.035156 76.800781 455.207031 76.800781 C 454.378906 76.800781 453.554688 76.867188 452.738281 76.996094 C 451.921875 77.125 451.117188 77.316406 450.332031 77.574219 C 449.542969 77.828125 448.78125 78.144531 448.046875 78.519531 C 447.308594 78.894531 446.605469 79.324219 445.9375 79.8125 C 445.269531 80.296875 444.644531 80.832031 444.0625 81.414062 C 443.480469 82 442.945312 82.625 442.464844 83.292969 C 441.980469 83.960938 441.554688 84.664062 441.179688 85.398438 C 440.808594 86.132812 440.5 86.894531 440.25 87.675781 L 424.636719 87.675781 C 426.9375 72.921875 439.972656 61.652344 455.207031 61.652344 C 470.4375 61.652344 483.472656 72.921875 485.777344 87.675781 Z M 485.777344 87.675781 "/><g clip-rule="nonzero" clip-path="url(#56ef5b7ba3)"><g clip-rule="nonzero" clip-path="url(#cbe7433556)"><path style=" stroke:none;fill-rule:nonzero;fill:#636363;fill-opacity:1;" d="M 252.058594 24.769531 L 294.941406 24.769531 L 294.941406 67.652344 L 252.058594 67.652344 Z M 252.058594 24.769531 "/></g></g><g clip-rule="nonzero" clip-path="url(#2332022cbb)"><path style=" stroke:none;fill-rule:nonzero;fill:#231f20;fill-opacity:1;" d="M 273.414062 24.769531 C 261.640625 24.769531 252.058594 34.351562 252.058594 46.125 C 252.058594 57.894531 261.640625 67.480469 273.414062 67.480469 C 285.183594 67.480469 294.769531 57.894531 294.769531 46.125 C 294.769531 34.351562 285.183594 24.769531 273.414062 24.769531 Z M 273.414062 63.3125 C 263.933594 63.3125 256.226562 55.601562 256.226562 46.125 C 256.226562 36.644531 263.933594 28.933594 273.414062 28.933594 C 282.894531 28.933594 290.601562 36.644531 290.601562 46.125 C 290.601562 55.601562 282.894531 63.3125 273.414062 63.3125 Z M 273.414062 63.3125 "/></g><path style=" stroke:none;fill-rule:nonzero;fill:#231f20;fill-opacity:1;" d="M 273.414062 31.019531 C 265.078125 31.019531 258.308594 37.789062 258.308594 46.125 C 258.308594 54.457031 265.078125 61.230469 273.414062 61.230469 C 281.746094 61.230469 288.519531 54.457031 288.519531 46.125 C 288.519531 37.789062 281.746094 31.019531 273.414062 31.019531 Z M 284.351562 47.164062 C 283.777344 47.164062 283.308594 46.695312 283.308594 46.125 C 283.308594 45.757812 283.308594 45.394531 283.257812 45.03125 C 282.738281 40.445312 279.089844 36.800781 274.558594 36.332031 C 274.144531 36.226562 273.777344 36.226562 273.414062 36.226562 C 272.839844 36.226562 272.371094 35.757812 272.371094 35.183594 C 272.371094 34.613281 272.839844 34.144531 273.414062 34.144531 C 280.027344 34.144531 285.394531 39.507812 285.394531 46.125 C 285.394531 46.695312 284.925781 47.164062 284.351562 47.164062 Z M 284.351562 47.164062 "/></g></svg>